<?xml version="1.0" encoding="UTF-8"?>
<svg version="1.1" xmlns="http://www.w3.org/2000/svg" width="505" height="513">
<path d="M0 0 C166.65 0 333.3 0 505 0 C505 169.29 505 338.58 505 513 C338.35 513 171.7 513 0 513 C0 343.71 0 174.42 0 0 Z " fill="#03B969" transform="translate(0,0)"/>
<path d="M0 0 C0.18712175 28.31213033 0.32807316 56.62416759 0.41449738 84.93679237 C0.45569749 98.08372327 0.5118398 111.2302693 0.60351562 124.37695312 C0.68340905 135.83948608 0.73490281 147.30174022 0.75270796 158.76454389 C0.7631113 164.83067122 0.7874534 170.89600109 0.84584045 176.9618721 C0.90042817 182.67973507 0.91683489 188.39647753 0.90486145 194.11457634 C0.9070496 196.20508237 0.9227927 198.29562861 0.9536438 200.38590813 C1.13875067 213.58280455 -0.09130237 222.1880129 -8 233 C-9.01086843 234.54011714 -10.01845225 236.08240807 -11.01953125 237.62890625 C-11.94226925 238.94592416 -12.8732037 240.25723985 -13.8125 241.5625 C-14.31676514 242.27011475 -14.82103027 242.97772949 -15.34057617 243.70678711 C-19.7968883 249.87808105 -24.57829174 255.71851345 -29.61401367 261.42553711 C-30.62067938 262.56909658 -31.61988015 263.71924094 -32.61450195 264.87329102 C-42.81398247 276.67257761 -53.81673735 287.43200183 -66.33398438 296.74414062 C-67.99192019 297.99390935 -69.61567577 299.27805187 -71.234375 300.578125 C-79.06847098 306.84062125 -87.23582557 312.13122462 -96 317 C-97.27327148 317.70842041 -97.27327148 317.70842041 -98.57226562 318.43115234 C-111.32906787 325.45824274 -124.15215001 331.39259289 -137.88525391 336.24072266 C-139.59777097 336.8555839 -141.29243393 337.52002256 -142.98046875 338.19921875 C-161.24459126 345.54551922 -179.52071089 346.7585393 -199 346 C-198.87375244 344.93918213 -198.74750488 343.87836426 -198.61743164 342.78540039 C-197.24717216 331.02033521 -196.27430497 319.25115213 -195.4375 307.4375 C-195.24858312 304.79775647 -195.058621 302.15809787 -194.86671448 299.51856995 C-194.7490717 297.89804823 -194.63315146 296.27740004 -194.51939392 294.65660095 C-194.24877776 290.90531772 -193.91979877 287.17320863 -193.48632812 283.43701172 C-193.0120281 279.30181944 -192.7339768 275.1685961 -192.53515625 271.01171875 C-192.45763923 269.49934699 -192.3800823 267.98697728 -192.30249023 266.47460938 C-192.26340546 265.6936792 -192.22432068 264.91274902 -192.18405151 264.1081543 C-191.50560649 250.59716777 -190.6939077 237.10756175 -189.68432617 223.61694336 C-188.9310735 213.41888638 -188.42016616 203.21667185 -188 193 C-184.36266699 196.50765982 -181.14832417 200.18282719 -178.0625 204.1875 C-177.59432861 204.78916992 -177.12615723 205.39083984 -176.64379883 206.01074219 C-175.62791356 207.31704624 -174.61356235 208.62454445 -173.60058594 209.93310547 C-171.95871737 212.05330976 -170.31202378 214.16968484 -168.6640625 216.28515625 C-165.7060639 220.08314765 -162.75168821 223.88393877 -159.79833984 227.68554688 C-156.86700636 231.45815636 -153.93337972 235.22898151 -151 239 C-150.42564209 239.73855225 -149.85128418 240.47710449 -149.25952148 241.23803711 C-146.29389134 245.05146465 -143.32737734 248.86419963 -140.359375 252.67578125 C-134.42928556 260.2928789 -128.51539773 267.92126709 -122.63671875 275.578125 C-117.69349411 282.00412371 -112.70907144 288.3987855 -107.71728516 294.78710938 C-106.50945464 296.34351765 -105.31212426 297.90810332 -104.12255859 299.47851562 C-103.50848145 300.28482422 -102.8944043 301.09113281 -102.26171875 301.921875 C-101.70830811 302.6550293 -101.15489746 303.38818359 -100.5847168 304.14355469 C-98.53814538 306.541048 -96.86518736 307.88708572 -93.6953125 308.30078125 C-86.822911 308.38372897 -86.822911 308.38372897 -81 305 C-78.27014778 300.50633638 -78.36287614 296.11248322 -79 291 C-80.01026854 288.08296954 -81.48915553 285.60862665 -83.125 283 C-84.04953015 281.43385603 -84.97123539 279.86604219 -85.890625 278.296875 C-86.39142578 277.45318359 -86.89222656 276.60949219 -87.40820312 275.74023438 C-90.36485018 270.65044809 -93.10472579 265.44281526 -95.875 260.25 C-96.95467701 258.23381121 -98.03543387 256.21820037 -99.1171875 254.203125 C-99.70612793 253.10597168 -100.29506836 252.00881836 -100.90185547 250.87841797 C-102.49605242 247.92164103 -104.10905839 244.97555755 -105.72705078 242.03173828 C-112.74521594 229.25302741 -119.51747663 216.37031271 -126.125 203.375 C-127.12184962 201.42074599 -128.1188411 199.46656433 -129.1159668 197.51245117 C-135.03254742 185.90403811 -140.87779264 174.26158995 -146.67773438 162.59454346 C-158.96482187 135.47491204 -158.96482187 135.47491204 -176.2734375 111.71484375 C-180.73570535 107.15080488 -182.43090093 103.74232539 -182.59692383 97.44067383 C-182.55001791 94.115011 -182.38267413 90.80811961 -182.15429688 87.49023438 C-182.00547165 85.08830826 -181.94818173 82.70292911 -181.921875 80.296875 C-181.61878982 63.68036284 -176.84594603 49.2735698 -165.375 36.8125 C-151.00690794 23.33030186 -133.90463888 20.5063242 -115.125 18.0625 C-113.22066786 17.8062854 -111.31645409 17.54918968 -109.41235352 17.29125977 C-96.1273355 15.50185088 -82.82888631 13.81167332 -69.52938843 12.13366699 C-53.88533813 10.15932019 -38.28517231 7.92766202 -22.69873047 5.54150391 C-20.16031986 5.16987389 -17.61711186 4.83003897 -15.07080078 4.51708984 C-13.19690674 4.2823999 -13.19690674 4.2823999 -11.28515625 4.04296875 C-10.17148682 3.91301514 -9.05781738 3.78306152 -7.91040039 3.64916992 C-5.18433182 3.04111554 -2.39007901 0 0 0 Z " fill="#004AAC" transform="translate(475,165)"/>
<path d="M0 0 C1.02590225 0.3139078 1.02590225 0.3139078 2.07252979 0.63415718 C3.42045376 1.0433077 3.42045376 1.0433077 4.79560852 1.46072388 C5.68579335 1.73187075 6.57597818 2.00301762 7.49313831 2.28238106 C10.37472352 3.10726906 13.19483073 3.61894833 16.16796875 3.9921875 C17.2878418 4.13712646 18.40771484 4.28206543 19.56152344 4.43139648 C20.7580957 4.57778564 21.95466797 4.7241748 23.1875 4.875 C25.1675966 5.12876645 27.14769284 5.38253565 29.1277771 5.63639832 C31.99702848 6.002014 34.86725319 6.35966616 37.73748779 6.71746826 C44.90971547 7.61310186 52.07985783 8.52534962 59.25 9.4375 C60.07043793 9.54155151 60.89087585 9.64560303 61.73617554 9.75280762 C74.92615396 11.4287617 88.08443863 13.27287748 101.23022461 15.26538086 C108.43399408 16.35376148 115.63523004 17.33325492 122.87402344 18.15869141 C141.08908749 20.27439924 156.99939557 26.39549083 169 41 C178.01687114 54.13937059 179.98004175 66.47219809 181 82 C181.11214844 83.47098145 181.11214844 83.47098145 181.2265625 84.97167969 C182.57997789 104.35183622 182.57997789 104.35183622 177.125 111.375 C176.32537842 112.21530762 175.52575684 113.05561523 174.7019043 113.92138672 C171.85174536 117.03834884 169.66533125 120.46321444 167.5546875 124.109375 C167.13405029 124.83101837 166.71341309 125.55266174 166.2800293 126.2961731 C160.0006869 137.27387971 154.51216615 148.68322149 148.91650391 160.01928711 C146.20259292 165.51434236 143.47629918 171.0032711 140.75 176.4921875 C140.45466873 177.08735924 140.15933746 177.68253098 139.85505676 178.29573822 C136.35250044 185.35067946 132.79742498 192.36888458 129.09375 199.3203125 C124.79233583 207.39670879 120.67784689 215.5623275 116.59375 223.75 C116.26627777 224.40639591 115.93880554 225.06279182 115.60140991 225.73907852 C113.23142303 230.49130114 110.86531281 235.24544964 108.5 240 C105.80465597 245.41795101 103.10773455 250.83510768 100.40625 256.25 C100.08301758 256.89798553 99.75978516 257.54597107 99.42675781 258.21359253 C94.0977731 268.88786215 88.61602964 279.47388385 83 290 C81.26540564 293.46918872 81.52826123 297.20696532 82 301 C84.0050088 304.8026029 85.42686262 306.61790841 89 309 C94.6406679 309.46234983 98.12454646 309.14195895 103 306 C107.00045246 302.28720549 110.21953315 298.25102151 113.4375 293.875 C113.9540918 293.17979248 114.47068359 292.48458496 115.00292969 291.76831055 C117.79179118 288.00968207 120.56147832 284.2369771 123.33203125 280.46484375 C124.4713149 278.91403365 125.61063842 277.36325284 126.75 275.8125 C127.32862793 275.02415771 127.90725586 274.23581543 128.50341797 273.42358398 C132.95507108 267.37528749 137.49473742 261.39841925 142.0625 255.4375 C147.51677812 248.31764937 152.83936912 241.12304227 158.0534668 233.82592773 C163.01115991 226.91703866 168.16429195 220.16284906 173.35742188 213.4296875 C177.27693227 208.33152719 181.02482824 203.15564482 184.63916016 197.8359375 C185.0882373 197.23007812 185.53731445 196.62421875 186 196 C186.33 196 186.66 196 187 196 C187.06850662 197.23431259 187.06850662 197.23431259 187.13839722 198.49356079 C187.57760776 206.40159525 188.01846052 214.30953631 188.46098137 222.21738625 C188.68821423 226.27899211 188.91489747 230.3406268 189.14013672 234.40234375 C190.05080605 250.81684149 190.98244222 267.22897186 192.0703125 283.6328125 C192.18848831 285.4213414 192.18848831 285.4213414 192.30905151 287.2460022 C192.94995266 296.71866197 193.76502222 306.16694456 194.75439453 315.609375 C195.00629327 318.06125619 195.23669234 320.51455475 195.46484375 322.96875 C195.62173789 324.5625649 195.77926207 326.15631795 195.9375 327.75 C196.00001953 328.45286133 196.06253906 329.15572266 196.12695312 329.87988281 C196.68198535 335.2036093 198.15162446 339.98641807 200 345 C182.88892921 345.606908 167.37818383 345.20091693 151 340 C150.17628906 339.74299316 149.35257813 339.48598633 148.50390625 339.22119141 C111.8021407 327.56222571 78.76341161 308.84326881 50.671875 282.484375 C48.45203832 280.42031633 46.19488784 278.44870579 43.875 276.5 C31.33791451 265.56559348 20.94302194 251.41614671 11.576087 237.72609806 C9.9649312 235.3728076 8.30580036 233.0741335 6.59109592 230.79568386 C-1.126453 219.98293996 -1.23700197 210.13466086 -1.02172852 197.19360352 C-1.01918489 195.03378405 -1.02062452 192.87395682 -1.02571106 190.71414185 C-1.02827667 184.89427254 -0.97563868 179.07609771 -0.91254544 173.25661969 C-0.85600206 167.15887542 -0.8509748 161.0610855 -0.84031677 154.96311951 C-0.81242589 143.43535002 -0.73868256 131.90835546 -0.64817137 120.38092607 C-0.54731748 107.24913623 -0.49802601 94.11730793 -0.45291245 80.98522675 C-0.35902564 53.98972278 -0.20088383 26.99490495 0 0 Z " fill="#004AAC" transform="translate(30,166)"/>
<path d="M0 0 C18.16980118 12.33137803 29.54030166 31.11640416 39.625 50.125 C40.09147949 51.0030127 40.55795898 51.88102539 41.03857422 52.78564453 C49.97079577 69.67738507 58.49393196 86.77569668 66.98925781 103.89013672 C72.70542461 115.39021899 78.5878551 126.79021298 84.625 138.125 C84.9600354 138.75472717 85.2950708 139.38445435 85.64025879 140.03326416 C87.71058584 143.92227263 89.7909418 147.80583608 91.875 151.6875 C92.50904605 152.86897097 93.14307891 154.05044902 93.77709961 155.23193359 C94.7525498 157.04941165 95.72816319 158.86680136 96.70420837 160.68395996 C98.65044052 164.30754275 100.59298243 167.93307023 102.53231812 171.56034851 C104.08212379 174.45792853 105.63512078 177.35379816 107.1875 180.25 C108.02619629 181.82116577 108.02619629 181.82116577 108.88183594 183.42407227 C111.89323653 189.03305516 115.01963639 194.4949393 118.4777832 199.84228516 C120.49633989 203.85877909 120.50935414 207.77817457 119.625 212.125 C117.5583095 216.258381 115.87791117 218.4130881 111.625 220.125 C109.2578125 220.49609375 109.2578125 220.49609375 106.75 220.5625 C105.92757813 220.60246094 105.10515625 220.64242187 104.2578125 220.68359375 C97.62851782 219.27708167 93.72550343 212.94425398 90 207.75 C88.94607325 206.31228763 87.89002977 204.87612489 86.83203125 203.44140625 C86.29916504 202.71840332 85.76629883 201.99540039 85.21728516 201.25048828 C82.78307354 198.00114048 80.24200584 194.84259366 77.6875 191.6875 C72.89802088 185.75539695 68.23679855 179.73647366 63.61914062 173.66992188 C57.93128013 166.2008097 52.16349006 158.79498711 46.39111328 151.39111328 C43.46612419 147.6380377 40.54575816 143.8813685 37.625 140.125 C34.07931401 135.56547952 30.53300102 131.00645158 26.984375 126.44921875 C21.05028592 118.82698363 15.1322123 111.1936055 9.25 103.53125 C5.46240205 98.60737266 1.64265031 93.70829058 -2.18115234 88.8125 C-4.93523175 85.28244267 -7.67326742 81.7442575 -10.3515625 78.15625 C-10.80273438 77.55554688 -11.25390625 76.95484375 -11.71875 76.3359375 C-12.91478211 74.73879707 -14.10225782 73.13525905 -15.2890625 71.53125 C-18.06948715 68.32386875 -20.06635717 67.35764761 -24.1875 66.625 C-30.26010381 67.5775653 -34.11399446 72.57562881 -37.69921875 77.3046875 C-38.82863935 78.86379345 -39.94941694 80.42918863 -41.0625 82 C-42.29490823 83.70620947 -43.52799176 85.41193135 -44.76171875 87.1171875 C-45.6751001 88.3870752 -45.6751001 88.3870752 -46.60693359 89.68261719 C-49.15143785 93.19756066 -51.75956781 96.66269949 -54.375 100.125 C-58.68325426 105.84781927 -62.94571183 111.6027671 -67.1875 117.375 C-72.66929361 124.83363511 -78.20697401 132.2483108 -83.77099609 139.64575195 C-87.98795351 145.25837077 -92.16109447 150.901278 -96.3125 156.5625 C-101.27737687 163.33099327 -106.33212045 170.02444382 -111.4375 176.6875 C-116.49267199 183.28717285 -121.46260899 189.93542343 -126.3125 196.6875 C-126.84246582 197.42379639 -127.37243164 198.16009277 -127.91845703 198.91870117 C-129.8529775 201.60844625 -131.78721608 204.29826726 -133.70703125 206.99853516 C-134.89953039 208.67237199 -136.10561298 210.33650739 -137.3125 212 C-137.96089844 212.90492188 -138.60929687 213.80984375 -139.27734375 214.7421875 C-143.48512941 219.52198126 -147.88827911 221.8804045 -154.1875 222.5 C-157.44004073 222.46406032 -159.20712381 221.91180009 -161.75 219.875 C-165.06666887 216.40039451 -166.66184757 213.79024017 -166.7734375 208.9609375 C-166.63722043 203.4921572 -164.57797848 199.48270676 -162 194.75 C-161.60683594 193.99589844 -161.21367187 193.24179687 -160.80859375 192.46484375 C-159.34860428 189.6751408 -157.86207605 186.90036339 -156.375 184.125 C-147.5370417 167.62725741 -139.21030465 150.87991952 -130.875 134.125 C-128.17965595 128.70704895 -125.48269104 123.28991406 -122.78125 117.875 C-122.45486038 117.22063776 -122.12847076 116.56627552 -121.79219055 115.89208412 C-117.58779034 107.46961359 -113.30221772 99.09725294 -108.87841797 90.78752136 C-105.87132169 85.12122509 -102.99441134 79.39713948 -100.15625 73.64453125 C-99.72115112 72.76409149 -99.28605225 71.88365173 -98.83776855 70.97653198 C-97.07077363 67.39774958 -95.30565613 63.8181274 -93.55224609 60.23266602 C-80.9226979 34.4393682 -66.03215266 5.58610592 -37.625 -5.25 C-24.28298905 -9.32102385 -11.88775479 -6.85498269 0 0 Z " fill="#FD904D" transform="translate(277.375,253.875)"/>
<path d="M0 0 C111.87 0 223.74 0 339 0 C336.32402948 2.00697789 333.89402842 3.72582264 331.04296875 5.390625 C330.27259277 5.84469727 329.5022168 6.29876953 328.70849609 6.76660156 C327.87656738 7.25612305 327.04463867 7.74564453 326.1875 8.25 C318.62690668 12.73905906 311.21551391 17.41012865 303.875 22.25 C294.45315534 28.45906859 284.89820661 34.41863005 275.26879883 40.29980469 C269.30595559 43.94715814 263.3983595 47.65325621 257.5625 51.5 C240.89768074 62.43936683 223.48113925 72.43003326 206 82 C205.14664063 82.49757813 204.29328125 82.99515625 203.4140625 83.5078125 C188.32215234 91.88106498 167.72283285 93.73646506 150.9765625 89.92578125 C127.91585556 82.75335665 106.50556887 70.56880311 86 58 C85.21657227 57.525625 84.43314453 57.05125 83.62597656 56.5625 C68.95188626 47.6615431 54.65643238 38.20079601 40.375 28.6875 C39.47121613 28.08617249 38.56743225 27.48484497 37.63626099 26.86529541 C27.96010953 20.42141015 18.34520018 13.92071167 8.93212891 7.09692383 C6.84797271 5.60643111 4.76389683 4.18296765 2.61865234 2.7878418 C1.75449707 2.197854 0.8903418 1.60786621 0 1 C0 0.67 0 0.34 0 0 Z " fill="#014AAC" transform="translate(83,69)"/>
<path d="M0 0 C1.4380607 -0.0039047 2.87612028 -0.00824288 4.31417847 -0.01298523 C7.311053 -0.02038678 10.30780964 -0.02020217 13.3046875 -0.01489258 C16.33576328 -0.01027018 19.36643704 -0.01715255 22.39746094 -0.03540039 C38.71799006 -0.13279786 54.70804507 -0.16707817 70.7421875 3.30078125 C71.7017334 3.48890381 72.6612793 3.67702637 73.64990234 3.87084961 C75.9082909 4.33313114 78.13449618 4.85325007 80.3671875 5.42578125 C81.17454346 5.63259521 81.98189941 5.83940918 82.8137207 6.05249023 C117.54849414 15.33503067 149.79485191 31.78358958 177.7421875 54.30078125 C178.90876039 55.22928451 180.07542189 56.15767644 181.2421875 57.0859375 C186.64233132 61.43222672 186.64233132 61.43222672 188.7421875 63.30078125 C188.7421875 63.63078125 188.7421875 63.96078125 188.7421875 64.30078125 C76.8721875 64.30078125 -34.9978125 64.30078125 -150.2578125 64.30078125 C-145.75066035 58.66684107 -145.75066035 58.66684107 -142.78125 56.390625 C-142.1200415 55.88184814 -141.45883301 55.37307129 -140.77758789 54.84887695 C-140.06981201 54.31738037 -139.36203613 53.78588379 -138.6328125 53.23828125 C-137.51217407 52.39172974 -137.51217407 52.39172974 -136.36889648 51.52807617 C-106.93434753 29.52044917 -75.407579 14.04028507 -39.7578125 4.98828125 C-38.80358398 4.7456958 -37.84935547 4.50311035 -36.86621094 4.25317383 C-24.56378484 1.24768476 -12.65777193 -0.01462 0 0 Z " fill="#004BAC" transform="translate(233.2578125,-0.30078125)"/>
<path d="M0 0 C3.61906834 0.90338787 5.38258686 2.12451725 8.265625 4.4675293 C16.336659 10.81526511 24.86922054 16.47541443 33.38134766 22.20947266 C36.17370824 24.09222625 38.96003821 25.98366555 41.74609375 27.87573242 C53.03382284 35.50954982 64.50224745 42.71519885 76.24372864 49.62870789 C78.74920004 51.12587197 81.20063007 52.69828172 83.640625 54.29956055 C102.43991645 66.3743776 122.66647424 78.18780532 143.640625 85.98706055 C144.39102051 86.26654541 145.14141602 86.54603027 145.91455078 86.83398438 C163.64211892 93.06047705 185.51126869 91.35799331 202.390625 83.4597168 C217.12869394 76.16733484 231.09854807 67.37884287 245.06982422 58.73413086 C247.77501466 57.06388549 250.48725686 55.40683971 253.20703125 53.76049805 C264.99121827 46.62637105 276.5984698 39.22107224 288.203125 31.79956055 C299.27313354 24.72376488 310.35488685 17.66917753 321.515625 10.73706055 C322.77741577 9.95093384 322.77741577 9.95093384 324.06469727 9.14892578 C328.04212429 6.68746734 332.04260265 4.26573861 336.08984375 1.9206543 C336.79713623 1.50871826 337.50442871 1.09678223 338.2331543 0.67236328 C341.15390841 -0.62168753 343.24906145 -0.2343617 346.203125 0.79956055 C347.203125 1.79956055 347.203125 1.79956055 347.578125 4.54956055 C347.07504114 8.9096207 345.38305704 9.81222197 342.203125 12.79956055 C341.10908239 13.89695296 340.01945469 14.9987593 338.93359375 16.10424805 C337.75264472 17.29439245 336.57165443 18.48449592 335.390625 19.67456055 C334.81248047 20.26108398 334.23433594 20.84760742 333.63867188 21.4519043 C329.95735239 25.15356257 326.15092831 28.64095575 322.20092773 32.0534668 C318.93632342 34.90675411 315.79249112 37.88547515 312.640625 40.86206055 C311.24359819 42.17597811 309.84645998 43.48977725 308.44921875 44.8034668 C307.74651855 45.46491699 307.04381836 46.12636719 306.31982422 46.80786133 C302.95215816 49.97665252 299.57935841 53.1399011 296.203125 56.29956055 C295.61716553 56.8500708 295.03120605 57.40058105 294.42749023 57.96777344 C291.42000471 60.78109028 288.37513004 63.53670091 285.265625 66.23706055 C281.14509948 69.82167957 277.167674 73.54407956 273.203125 77.29956055 C268.60866543 81.65173416 263.95969293 85.90853603 259.18115234 90.05786133 C255.8875985 92.95791232 252.70470826 95.97315789 249.515625 98.98706055 C248.11363431 100.30644622 246.71128559 101.62545156 245.30859375 102.9440918 C244.61813965 103.5932959 243.92768555 104.2425 243.21630859 104.91137695 C236.65117879 111.06887318 230.03600059 117.17277712 223.328125 123.17456055 C219.02090598 127.03135143 214.79630261 130.97111779 210.578125 134.92456055 C206.25736887 138.97361106 201.91763201 142.97198984 197.421875 146.8269043 C195.47256467 148.56000591 193.56887515 150.32616692 191.671875 152.1159668 C191.02089844 152.72956055 190.36992187 153.3431543 189.69921875 153.9753418 C188.40674089 155.19699895 187.11745912 156.42205006 185.83203125 157.65112305 C181.52426791 161.72209601 177.01486617 165.34013363 172.203125 168.79956055 C164.25018345 161.95208861 156.34465664 155.07165108 148.6015625 147.98706055 C144.17691645 143.95155275 139.65856001 140.03012745 135.08984375 136.15893555 C128.31640689 130.40813978 121.71397668 124.53111019 115.24145508 118.44335938 C111.85061112 115.27308903 108.39516856 112.26140008 104.765625 109.36206055 C98.76558129 104.56025041 93.23659574 99.29681464 87.6484375 94.0300293 C84.52536578 91.08923475 81.34040408 88.23556878 78.08984375 85.4362793 C75.76653713 83.42082283 73.48564035 81.36107592 71.203125 79.29956055 C68.22249779 76.60972624 65.23067267 73.93645691 62.203125 71.29956055 C58.30799689 67.90702962 54.47529737 64.44761854 50.640625 60.98706055 C48.50895019 59.07401905 46.3629339 57.18068443 44.203125 55.29956055 C40.30799689 51.90702962 36.47529737 48.44761854 32.640625 44.98706055 C30.50895019 43.07401905 28.3629339 41.18068443 26.203125 39.29956055 C23.17557733 36.66266419 20.18375221 33.98939485 17.203125 31.29956055 C14.17859044 28.57100491 11.14444381 25.85608641 8.078125 23.17456055 C7.44261719 22.61768555 6.80710937 22.06081055 6.15234375 21.48706055 C4.7905119 20.30807987 3.41709324 19.14240967 2.03515625 17.98706055 C-5.18393262 11.88568125 -5.18393262 11.88568125 -6.796875 7.79956055 C-6.6604942 4.9355638 -6.13617001 3.33528951 -4.609375 0.92456055 C-2.796875 -0.20043945 -2.796875 -0.20043945 0 0 Z " fill="#FD904D" transform="translate(81.796875,69.200439453125)"/>
<path d="M0 0 C72.6 0 145.2 0 220 0 C220 71.28 220 142.56 220 216 C219.67 216 219.34 216 219 216 C218.82984375 215.11441406 218.6596875 214.22882813 218.484375 213.31640625 C217.82152547 209.92811687 217.14100114 206.54453403 216.44433594 203.16308594 C216.03170828 201.15436009 215.62873167 199.14365836 215.2265625 197.1328125 C213.35947185 188.2644099 210.72270354 179.70452077 207.8125 171.125 C207.47460449 170.11074951 207.13670898 169.09649902 206.78857422 168.05151367 C205.10189462 163.20735464 203.48023229 158.64333815 200.71264648 154.30834961 C191.07432743 138.46236224 192.96185539 120.80978211 193.38201904 102.92822266 C193.47530739 98.53002081 193.51544709 94.13133499 193.56054688 89.73242188 C193.65609134 81.1536415 193.80898522 72.57718433 194 64 C193.31476761 64.02442673 192.62953522 64.04885345 191.92353821 64.07402039 C185.40895872 64.29607194 178.89546068 64.46270481 172.37792683 64.56993389 C169.02758111 64.62693599 165.68277178 64.71002755 162.33374023 64.82983398 C137.66305055 65.68974432 137.66305055 65.68974432 130.78092957 60.34164429 C128.32185007 58.03716614 126.17761234 55.57422902 124 53 C122.54943517 51.78641243 121.06289446 50.61340991 119.53125 49.50390625 C118.86955811 49.01446533 118.20786621 48.52502441 117.52612305 48.02075195 C82.52809297 22.83178537 42.64222367 6.93325058 0 1 C0 0.67 0 0.34 0 0 Z " fill="#FDFEFE" transform="translate(285,0)"/>
<path d="M0 0 C71.94 0 143.88 0 218 0 C218 0.33 218 0.66 218 1 C217.45923828 1.08451416 216.91847656 1.16902832 216.36132812 1.25610352 C173.72235644 8.07816028 118.27721911 25.52106033 88.70651245 59.48568726 C85.0403416 63.35022055 82.20258944 64.43138651 76.88110352 64.68115234 C74.46349627 64.68020839 72.04575097 64.64666051 69.62890625 64.5859375 C68.35144028 64.57744781 67.0739743 64.56895813 65.75779724 64.56021118 C62.38172272 64.53240246 59.00813735 64.47862849 55.63275146 64.4119873 C52.18051524 64.35030933 48.72802049 64.32314235 45.27539062 64.29296875 C38.51624584 64.2269415 31.75826645 64.12663046 25 64 C25.02997826 65.36158234 25.02997826 65.36158234 25.06056213 66.75067139 C25.24254192 75.39725996 25.37873838 84.04318579 25.46630955 92.69126511 C25.51284937 97.13519158 25.57573282 101.57750788 25.67895508 106.02050781 C26.50742684 142.64347216 26.50742684 142.64347216 17.05581665 158.19482422 C14.69773375 162.22654142 13.31527082 166.7213027 11.8125 171.125 C11.4920874 172.0523999 11.1716748 172.9797998 10.84155273 173.93530273 C6.39471958 187.26253797 3.23990191 201.13400121 1 215 C0.67 215 0.34 215 0 215 C0 144.05 0 73.1 0 0 Z " fill="#FEFEFE" transform="translate(0,0)"/>
<path d="M0 0 C16.9073712 -0.21063439 33.81433056 -0.36913929 50.72271538 -0.46630955 C58.57437993 -0.51263543 66.42522732 -0.57574393 74.27636719 -0.67895508 C81.12284988 -0.76891577 87.96874059 -0.8267834 94.81579792 -0.84679645 C98.43862242 -0.85848841 102.05975405 -0.88578154 105.68203354 -0.95157051 C109.73522391 -1.02458251 113.78550896 -1.02589348 117.83935547 -1.02172852 C119.62284645 -1.07026474 119.62284645 -1.07026474 121.44236755 -1.11978149 C128.04781991 -1.04655349 131.59810997 -0.10729639 136.58816528 4.35682678 C138.07649679 5.88751896 139.54878463 7.43407433 141 9 C142.23544539 10.12042792 143.48268094 11.22825537 144.75 12.3125 C145.39195312 12.87324219 146.03390625 13.43398437 146.6953125 14.01171875 C148.49559857 15.5648469 150.3031779 17.10755659 152.1171875 18.64453125 C158.889739 24.39355964 165.4904816 30.26970438 171.96166992 36.35620117 C175.35251388 39.52647151 178.80795644 42.53816047 182.4375 45.4375 C187.00269772 49.08831349 191.25689806 52.98648474 195.5 57 C200.69133761 61.90874464 205.96445912 66.56084756 211.546875 71.0234375 C215.12661432 73.90774975 218.56841911 76.94205829 222 80 C227.47439901 76.19626227 232.14692206 71.97150848 236.80078125 67.20703125 C239.30787882 64.69102747 241.94238474 62.38909686 244.63671875 60.078125 C248.40851724 56.76143608 252.06205871 53.31755693 255.7253418 49.88183594 C258.74036706 47.06328388 261.78805677 44.29802377 264.90625 41.59375 C269.21576734 37.84471902 273.36103491 33.93540943 277.5 30 C278.92571967 28.64439769 280.35279685 27.29022163 281.78125 25.9375 C282.7103418 25.05384766 282.7103418 25.05384766 283.65820312 24.15234375 C284.99788978 22.92103875 286.35218527 21.7043359 287.74578094 20.53439426 C291.23547462 17.58571622 294.38021236 14.66792478 297.2265625 11.08665466 C302.67989695 4.54120668 307.78180317 -0.07135531 316.4453125 -1.31344604 C323.59171801 -1.86916004 330.71752841 -1.74190845 337.87308502 -1.52090907 C341.47337978 -1.42600557 345.07394041 -1.41824193 348.67529297 -1.40052795 C355.46931339 -1.35422687 362.25963711 -1.23160545 369.05204201 -1.08028561 C376.79539133 -0.91159148 384.538934 -0.82989805 392.28366852 -0.75485408 C408.19124049 -0.5987992 424.09514043 -0.33562663 440 0 C440.1875 2.375 440.1875 2.375 440 5 C429.9795669 11.68028873 413.18551622 11.02958435 401.46801758 12.44873047 C392.7899383 13.50336792 384.14219784 14.67737363 375.5 16 C364.04356929 17.75064753 352.56462343 19.22656477 341.05859375 20.60546875 C334.20771804 21.43566652 327.41085215 22.39406675 320.61108398 23.57128906 C318.39592988 23.93499272 316.20106228 24.2294388 313.96875 24.45703125 C297.4656518 26.14822712 282.16980043 33.55051703 271 46 C260.42431729 60.83558994 257.43937474 75.91493208 257.140625 93.84765625 C257.07108565 97.99053874 256.70194382 101.91853631 256 106 C255.53851563 105.63648438 255.07703125 105.27296875 254.6015625 104.8984375 C241.92506886 95.1280175 230.42013441 89.15799774 214 91 C204.72249371 93.23016978 197.50400799 97.25635005 190 103 C188.00769574 104.34480538 186.00927795 105.68068962 184 107 C183.94054199 105.80793945 183.94054199 105.80793945 183.87988281 104.59179688 C182.0093647 68.71296501 182.0093647 68.71296501 162.56787109 39.35009766 C153.83468104 31.82992621 143.32525399 27.12566042 132.0625 25.0625 C131.1655542 24.89484131 130.2686084 24.72718262 129.34448242 24.55444336 C119.84774066 22.85437506 110.28109899 21.71655874 100.70532227 20.57055664 C90.77621688 19.37769732 80.88829204 17.99212568 71 16.5 C59.72499276 14.8019168 48.44309202 13.25731342 37.125 11.875 C28.11625733 10.76992539 19.10958388 9.66420068 10.125 8.375 C9.31047363 8.26397949 8.49594727 8.15295898 7.65673828 8.03857422 C2.23536321 7.23536321 2.23536321 7.23536321 0 5 C-0.125 2.375 -0.125 2.375 0 0 Z " fill="#014BAB" transform="translate(32,157)"/>
<path d="M0 0 C0.33 0 0.66 0 1 0 C1 42.24 1 84.48 1 128 C-57.41 128 -115.82 128 -176 128 C-172.26639649 126.13319825 -169.975129 125.57502037 -165.9375 124.9375 C-110.80341964 114.8773067 -55.5636546 78.44221469 -22.33544922 33.79296875 C-20.96717127 31.95592428 -19.58014471 30.13411069 -18.19140625 28.3125 C-11.43655125 19.36590393 -5.02477764 10.04955529 0 0 Z " fill="#F9FDFB" transform="translate(474,384)"/>
<path d="M0 0 C4.48301039 5.60376299 4.48301039 5.60376299 6.2265625 8.53125 C6.61320068 9.17022217 6.99983887 9.80919434 7.39819336 10.4675293 C7.80303955 11.13824463 8.20788574 11.80895996 8.625 12.5 C20.62182838 31.9912259 36.37279131 51.357791 54 66 C54.91910156 66.80695313 55.83820313 67.61390625 56.78515625 68.4453125 C69.2545903 79.35013323 82.81245027 88.77749354 97.20117188 96.97509766 C98.93800399 97.96467708 100.66454018 98.97226022 102.390625 99.98046875 C120.64321554 110.23220402 140.9947065 117.59705333 161.25 122.75 C162.10207031 122.97042969 162.95414063 123.19085938 163.83203125 123.41796875 C165.88706021 123.94904365 167.94338757 124.47509055 170 125 C170 125.33 170 125.66 170 126 C113.9 126 57.8 126 0 126 C0 84.42 0 42.84 0 0 Z " fill="#FDFEFE" transform="translate(30,385)"/>
<path d="M0 0 C2 0 2 0 3.26953125 1.2578125 C3.77871094 1.87398438 4.28789062 2.49015625 4.8125 3.125 C7.10050656 5.83460611 9.42670339 8.47015221 11.89453125 11.015625 C24.12275086 23.67746942 33.9325689 37.83465969 43.07421875 52.83984375 C44.34130498 54.91909885 45.64935238 56.97402856 47 59 C47 66.59 47 74.18 47 82 C5.42 82 -36.16 82 -79 82 C-72.29552239 74.17810945 -72.29552239 74.17810945 -68.5625 70.9375 C-64.09069503 66.99338155 -59.72109758 62.95615061 -55.375 58.875 C-50.8833817 54.66247147 -46.3571475 50.51940055 -41.6875 46.50390625 C-39.31029177 44.38532947 -37.10226218 42.11373814 -34.87280273 39.84179688 C-33.06652877 38.06542733 -31.20589671 36.4050691 -29.28515625 34.75390625 C-24.36486876 30.47652727 -19.64290717 26.00202773 -14.91210938 21.51757812 C-11.18436899 17.99995333 -7.41167121 14.59441082 -3.44750977 11.34399414 C-1.74223914 9.86503734 -1.74223914 9.86503734 0 7 C0.07905064 4.66800612 0.08798769 2.33167378 0 0 Z " fill="#004BAC" transform="translate(428,70)"/>
<path d="M0 0 C0.66 0 1.32 0 2 0 C1.566875 1.485 1.566875 1.485 1.125 3 C0.63885741 6.49459022 1.38306519 8.16476921 3.4375 11 C6.25844098 14.37736512 9.36177646 17.26473822 12.73046875 20.0859375 C15.38438856 22.32418312 17.93950982 24.65554011 20.5 27 C25.96012794 31.97461724 31.47780237 36.86553742 37.11328125 41.640625 C44.54769007 47.95202407 51.7695604 54.4391735 58.890625 61.1015625 C63.51569697 65.42547984 68.26739472 69.573491 73.1484375 73.60546875 C73.70128418 74.06284424 74.25413086 74.52021973 74.82373047 74.99145508 C75.92692651 75.90200153 77.03266187 76.80948156 78.14111328 77.71362305 C79.44551778 78.78745524 80.72532903 79.89103625 82 81 C82 81.33 82 81.66 82 82 C40.09 82 -1.82 82 -45 82 C-45 55.35107737 -45 55.35107737 -37.3359375 45.4140625 C-35.01197094 42.34078608 -32.74821733 39.2431106 -30.5390625 36.0859375 C-23.94314232 26.7698054 -16.87781408 18.24748497 -9 10 C-7.09416985 7.85680111 -5.2134235 5.69477443 -3.33984375 3.5234375 C-2.27112096 2.30827165 -1.1442894 1.1442894 0 0 Z " fill="#004BAC" transform="translate(75,70)"/>
<path d="M0 0 C16.08595588 21.44794118 26.11867185 58.42465611 26.16113281 84.86865234 C26.16609772 85.6226532 26.17106262 86.37665405 26.17617798 87.15350342 C26.19069605 89.63099103 26.19758731 92.10841445 26.203125 94.5859375 C26.20595238 95.44090443 26.20877975 96.29587135 26.21169281 97.17674637 C26.22665007 101.7091426 26.23589905 106.24150733 26.24023438 110.77392578 C26.2456871 115.40752682 26.2696569 120.04082926 26.29820633 124.67433739 C26.31703381 128.27793149 26.32204905 131.88145689 26.32357025 135.48509598 C26.32655663 137.19037111 26.33444522 138.89564624 26.34775543 140.60087204 C26.57622777 172.14500216 17.21133145 206.3758372 2 234 C1.01 234.99 1.01 234.99 0 236 C0 158.12 0 80.24 0 0 Z " fill="#014CAC" transform="translate(479,139)"/>
<path d="M0 0 C0.33 0 0.66 0 1 0 C1 71.61 1 143.22 1 217 C-7.58 217 -16.16 217 -25 217 C-25.18123568 199.30059319 -25.32832828 181.60198969 -25.41449738 163.90190983 C-25.4555871 155.68174361 -25.51151216 147.46219875 -25.60351562 139.24243164 C-25.68375404 132.07030052 -25.7349828 124.89861978 -25.75270796 117.72605222 C-25.76305466 113.93494962 -25.78701823 110.14513436 -25.84584045 106.35444832 C-26.0918084 89.8729539 -25.81473729 76.36035871 -17 62 C-15.42679342 58.30059155 -14.07363408 54.54491745 -12.75 50.75 C-12.41774414 49.81164307 -12.08548828 48.87328613 -11.74316406 47.90649414 C-10.81773664 45.27466772 -9.90703465 42.63820868 -9 40 C-8.5875 38.82824219 -8.175 37.65648437 -7.75 36.44921875 C-3.8385218 24.66894652 -1.99403367 12.2260448 0 0 Z " fill="#FBFDFD" transform="translate(504,296)"/>
<path d="M0 0 C0.33 0 0.66 0 1 0 C1 76.89 1 153.78 1 233 C-1.55782785 230.44217215 -2.47477098 229.39902934 -3.796875 226.2890625 C-4.11229248 225.54978516 -4.42770996 224.81050781 -4.75268555 224.04882812 C-5.08179932 223.24896484 -5.41091309 222.44910156 -5.75 221.625 C-6.27170776 220.36719727 -6.27170776 220.36719727 -6.80395508 219.08398438 C-13.15209499 203.50126892 -18.22674575 187.39808839 -22 171 C-22.26052155 169.91872833 -22.26052155 169.91872833 -22.52630615 168.81561279 C-24.47463275 159.66477312 -24.34716442 150.521061 -24.37109375 141.2109375 C-24.3800896 139.38082824 -24.38921182 137.55071961 -24.39845276 135.72061157 C-24.41487807 131.88956942 -24.42262946 128.05861387 -24.42553711 124.22753906 C-24.42981974 120.35063018 -24.45050693 116.47439363 -24.48706055 112.59765625 C-24.8755537 70.59359484 -24.8755537 70.59359484 -19 50 C-18.78066803 49.20664246 -18.56133606 48.41328491 -18.33535767 47.59588623 C-16.9515601 42.66896007 -15.37259566 37.83097544 -13.6875 33 C-13.20906899 31.59258351 -12.73079986 30.18511199 -12.25268555 28.77758789 C-8.84077772 18.85703526 -4.93693199 9.2655887 0 0 Z " fill="#014AAD" transform="translate(24,140)"/>
<path d="M0 0 C1.93846288 3.87692575 2.4826082 6.39969058 3.125 10.625 C6.6565642 31.00291768 13.51018274 53.88722873 24.04859734 71.78041458 C25.24542339 74.57256322 25.2459905 76.72126105 25.24050903 79.75799561 C25.24325836 80.93306168 25.24600769 82.10812775 25.24884033 83.31880188 C25.24164978 84.60417343 25.23445923 85.88954498 25.22705078 87.21386719 C25.22648651 88.58389782 25.22680354 89.95392907 25.22793579 91.32395935 C25.22850968 95.04059912 25.2167495 98.75710983 25.20278788 102.4737196 C25.1902866 106.35879551 25.18911049 110.24387436 25.18673706 114.12896729 C25.18052052 121.48475902 25.16410735 128.84049132 25.14403808 136.19625688 C25.1216845 144.57103079 25.11068701 152.94580753 25.10064721 161.32060385 C25.07974127 178.54710458 25.0441591 195.77354374 25 213 C16.75 213 8.5 213 0 213 C0 142.71 0 72.42 0 0 Z " fill="#FEFEFE" transform="translate(0,300)"/>
<path d="M0 0 C0.483159 39.57443863 -0.7487992 79.1907833 -3.56640625 118.66796875 C-3.98597206 124.56761407 -4.26874967 130.46532741 -4.5 136.375 C-4.86892558 145.3412822 -5.27128738 154.30567635 -5.75708008 163.26641846 C-5.83484719 164.73944506 -5.90803046 166.21272179 -5.97631836 167.68621826 C-6.07330343 169.7604302 -6.18712769 171.83311518 -6.3046875 173.90625 C-6.36640137 175.10572266 -6.42811523 176.30519531 -6.49169922 177.54101562 C-7.07672736 181.52212933 -8.275978 184.38203898 -10 188 C-12.75 188.3125 -12.75 188.3125 -16 188 C-20.91659074 183.67712364 -20.90535757 178.57622517 -21.4140625 172.4375 C-21.56397644 170.86816208 -21.56397644 170.86816208 -21.71691895 169.26712036 C-22.03791584 165.84614665 -22.33236762 162.42350783 -22.625 159 C-22.84031801 156.61826661 -23.05630627 154.23659371 -23.27294922 151.85498047 C-24.77936498 134.98234943 -25.85444341 118.11639028 -26.63330078 101.19720459 C-26.93948729 94.77981684 -27.35063557 88.37106579 -27.78125 81.9609375 C-27.8506076 80.92671661 -27.91996521 79.89249573 -27.99142456 78.82693481 C-28.26811126 74.72388817 -28.5467659 70.62100355 -28.83306885 66.51861572 C-29.26340785 60.3477438 -29.65871128 54.17644944 -30 48 C-30.07661865 46.68354492 -30.1532373 45.36708984 -30.23217773 44.01074219 C-30.45992112 37.2410339 -30.12462039 33.54245936 -25.8125 28.25 C-25.37341309 27.69199707 -24.93432617 27.13399414 -24.48193359 26.55908203 C-23.52652853 25.34717904 -22.55856887 24.14508924 -21.57958984 22.95214844 C-19.86214068 20.82962548 -18.21887475 18.66178778 -16.58203125 16.4765625 C-4.21419435 0 -4.21419435 0 0 0 Z " fill="#004BAC" transform="translate(251,321)"/>
<path d="M0 0 C4.92889752 2.79120393 7.55973864 5.99233357 10.89404297 10.54541016 C13.17924857 13.64092456 15.49385183 16.60182997 18.09375 19.44140625 C18.5995459 20.01592529 19.1053418 20.59044434 19.62646484 21.18237305 C20.58789416 22.26832766 21.57629326 23.33131096 22.59619141 24.36254883 C27.70886687 30.30143116 26.44226402 37.63927945 26 45 C25.93555695 46.19323883 25.93555695 46.19323883 25.86981201 47.4105835 C25.52120245 53.77861078 25.07850596 60.13872811 24.625 66.5 C24.4844188 68.52250583 24.34437023 70.54504876 24.20483398 72.56762695 C23.99588864 75.5956285 23.78661649 78.62360201 23.57536316 81.65144348 C23.1103077 88.3271745 22.68258368 95.00398806 22.27685547 101.68359375 C21.42074025 115.67785991 20.36603021 129.65537713 19.2651062 143.63223267 C19.0907915 145.84663334 18.91768115 148.06112921 18.74588013 150.27572632 C17.18350352 170.3451102 17.18350352 170.3451102 16.0625 179.75 C15.92972656 180.87921875 15.79695313 182.0084375 15.66015625 183.171875 C14.95585742 186.18910785 14.14952235 187.78710106 12 190 C9.5 190.4375 9.5 190.4375 7 190 C4.4951889 188.12139167 4.01299375 187.03898126 3 184 C2.78681992 181.24309304 2.62289278 178.50333001 2.5 175.7421875 C2.45939453 174.88924103 2.41878906 174.03629456 2.37695312 173.15750122 C2.29084436 171.32319827 2.20693136 169.48879117 2.125 167.65429688 C2.00636753 165.01657815 1.87889117 162.37942161 1.75 159.7421875 C0.03863166 123.4514615 -0.14204021 87.15214796 -0.06866455 50.82855225 C-0.05819133 45.06734606 -0.05381713 39.30613496 -0.04882812 33.54492188 C-0.03829722 22.36326909 -0.02137276 11.18163698 0 0 Z " fill="#004BAC" transform="translate(257,321)"/>
<path d="M0 0 C1.99609375 1.12109375 1.99609375 1.12109375 3.875 2.375 C4.56722656 2.79910156 5.25945312 3.22320312 5.97265625 3.66015625 C12.55776803 8.07895088 17.25256271 14.09114564 19.3125 21.8125 C20.82016925 30.85851549 19.04683942 38.79707701 13.875 46.375 C7.22107404 54.14471722 -1.25043652 58.91539672 -11.47265625 59.88671875 C-22.08226196 60.47819894 -30.82324891 58.88431533 -39.08203125 51.6640625 C-44.86163047 45.44853244 -46.69264265 38.85179942 -46.625 30.5625 C-46.62072998 29.77004883 -46.61645996 28.97759766 -46.61206055 28.16113281 C-46.42203931 21.60506453 -44.9734485 16.7628279 -41.125 11.375 C-40.403125 10.3025 -39.68125 9.23 -38.9375 8.125 C-29.06429729 -1.52879821 -13.11918837 -5.56641619 0 0 Z " fill="#014AAC" transform="translate(270.125,83.625)"/>
<path d="M0 0 C1.99954746 -0.04254356 4.00041636 -0.04080783 6 0 C8.09911277 2.09911277 7.17545901 6.74281605 7.18945312 9.64257812 C7.19774643 10.55222321 7.20603973 11.46186829 7.21458435 12.39907837 C7.23205553 14.39008293 7.24720262 16.38110887 7.26036072 18.37214661 C7.28149041 21.56760733 7.30853435 24.76297109 7.33703613 27.95837402 C7.38679795 33.65056597 7.43119681 39.34278562 7.47393799 45.03503418 C7.89563122 104.12795291 7.89563122 104.12795291 9.76513672 163.18994141 C9.84113369 164.96083973 9.91035264 166.73203715 9.97412109 168.50341797 C10.07089782 171.1853135 10.18555595 173.8658911 10.3046875 176.546875 C10.32981415 177.33302185 10.3549408 178.1191687 10.38082886 178.92913818 C10.60756715 183.44181067 11.3263119 186.34978426 14 190 C14.66 190.99 15.32 191.98 16 193 C-4.361142 193.11111361 -24.6600616 193.08326018 -45 192 C-45 191.67 -45 191.34 -45 191 C-37.08 190.67 -29.16 190.34 -21 190 C-21.99 187.36 -22.98 184.72 -24 182 C-24.45849957 179.23543753 -24.81823234 176.5913594 -25.0625 173.8125 C-25.13919922 173.03551758 -25.21589844 172.25853516 -25.29492188 171.45800781 C-25.45664335 169.80595062 -25.61361904 168.15342274 -25.76611328 166.50048828 C-25.99345068 164.07001894 -26.24166176 161.64261102 -26.49609375 159.21484375 C-27.91169564 145.46014107 -28.83392669 131.67644391 -29.69384766 117.87744141 C-29.91773488 114.29084849 -30.14780167 110.70469263 -30.38037109 107.11865234 C-30.73292469 101.67802251 -31.07738794 96.23692221 -31.41751099 90.79550171 C-31.55350442 88.63554841 -31.69167063 86.47573057 -31.83224487 84.31607056 C-32.55794434 73.12482532 -33.15476595 61.93346646 -33.3359375 50.71875 C-33.36426666 49.79743286 -33.39259583 48.87611572 -33.42178345 47.92687988 C-33.42745331 47.07380249 -33.43312317 46.2207251 -33.43896484 45.34179688 C-33.45116058 44.59700073 -33.46335632 43.85220459 -33.47592163 43.08483887 C-32.81302891 40.18094795 -31.19604671 38.92448396 -29 37 C-28.36278759 46.2855427 -27.72798396 55.57124631 -27.09605503 64.85715008 C-26.80239019 69.17136515 -26.5079695 73.48552556 -26.21166992 77.79956055 C-25.86925859 82.78678983 -25.52921582 87.77417566 -25.19140625 92.76171875 C-25.13611 93.57725157 -25.08081375 94.39278439 -25.02384186 95.23303032 C-24.41709335 104.22037193 -23.85623609 113.20226295 -23.48828125 122.203125 C-23.02147189 133.36047501 -22.0113113 144.46640592 -20.953125 155.58129883 C-20.61993017 159.11628775 -20.30604721 162.65270119 -19.9921875 166.18945312 C-19.77981899 168.45063132 -19.56632091 170.71170379 -19.3515625 172.97265625 C-19.21544052 174.54902611 -19.21544052 174.54902611 -19.0765686 176.15724182 C-18.93159439 177.616735 -18.93159439 177.616735 -18.78369141 179.10571289 C-18.70454498 179.95726456 -18.62539856 180.80881622 -18.54385376 181.68617249 C-17.89358277 184.45275242 -16.94930575 185.94350496 -15 188 C-11.89802603 188.80946422 -11.89802603 188.80946422 -9 189 C-6.84494856 182.74725323 -6.51407576 176.73441021 -6.21875 170.15625 C-6.16041489 169.00793701 -6.10207977 167.85962402 -6.04197693 166.67651367 C-5.85401439 162.95133237 -5.67702213 159.22571573 -5.5 155.5 C-5.2442176 150.35399743 -4.98328449 145.2082591 -4.72265625 140.0625 C-4.62870323 138.1835907 -4.62870323 138.1835907 -4.53285217 136.26672363 C-4.09908775 127.66869216 -3.55961738 119.0864767 -2.9375 110.5 C-0.40815782 73.7479716 0.43433 36.83118373 0 0 Z " fill="#00B767" transform="translate(250,320)"/>
<path d="M0 0 C15.84 0 31.68 0 48 0 C48 20.13 48 40.26 48 61 C44.91662033 57.91662033 42.90392064 54.6998659 40.6875 51 C30.45110602 34.35844419 18.67045566 18.75484939 4.30737305 5.4296875 C3 4 3 4 3 2 C2.01 1.67 1.02 1.34 0 1 C0 0.67 0 0.34 0 0 Z " fill="#F3FBF8" transform="translate(427,68)"/>
<path d="M0 0 C15.84 0 31.68 0 48 0 C46.35 1.65 44.7 3.3 43 5 C33.46752217 14.70612221 25.04565742 25.03916549 17 36 C16.32195313 36.91523437 15.64390625 37.83046875 14.9453125 38.7734375 C10.91676037 44.36142916 7.39446633 50.22719622 3.93066406 56.17626953 C2.97916858 57.79933504 1.99292565 59.4019437 1 61 C0.67 61 0.34 61 0 61 C0 40.87 0 20.74 0 0 Z " fill="#F7FCFA" transform="translate(30,68)"/>
<path d="M0 0 C8.65570304 6.02023525 14.5511088 13.95427793 17.265625 24.2890625 C18.97093661 36.56730608 17.20070607 47.32001707 10.6171875 57.8203125 C5.35291585 64.38092513 -1.00362459 69.22427671 -9.3828125 70.8203125 C-21.50407534 71.68107738 -29.84815681 70.14310725 -39.46875 62.515625 C-48.17080693 54.80808886 -53.47146763 45.87852816 -54.640625 34.2578125 C-55.12380737 22.91913282 -50.83584152 13.54572715 -43.2578125 5.2578125 C-31.84608698 -5.85814476 -13.64141848 -7.94825196 0 0 Z M-36.3828125 8.8203125 C-37.4553125 9.5421875 -38.5278125 10.2640625 -39.6328125 11.0078125 C-47.44135941 18.99382638 -49.72347472 26.95749316 -49.76782227 37.83886719 C-49.6266989 45.45800338 -47.8971169 50.82638839 -42.80859375 56.609375 C-41.09119041 58.2347031 -39.36007042 59.52640138 -37.3828125 60.8203125 C-36.78339844 61.2328125 -36.18398437 61.6453125 -35.56640625 62.0703125 C-27.25881479 66.75247755 -15.93207135 66.11576238 -6.90234375 64.0078125 C1.81498632 60.7599586 9.98778853 54.87178354 14.1796875 46.3828125 C17.01755868 38.6492773 17.56545969 30.58682581 14.6171875 22.8203125 C10.18224969 13.93545399 3.12561416 7.7259494 -6.21044922 4.41357422 C-9.89042575 3.40859074 -13.45960689 3.28897283 -17.2578125 3.3203125 C-18.04575195 3.32458252 -18.83369141 3.32885254 -19.64550781 3.33325195 C-26.18012707 3.52374405 -31.01353072 4.98511123 -36.3828125 8.8203125 Z " fill="#ED8C53" transform="translate(273.3828125,78.1796875)"/>
<path d="M0 0 C0.33 0 0.66 0 1 0 C1.03314301 0.97195313 1.06628601 1.94390625 1.10043335 2.9453125 C1.41461297 12.12602451 1.73784322 21.30637963 2.06982994 30.48646545 C2.24020025 35.20551382 2.40743217 39.92462903 2.56738281 44.64404297 C2.7219964 49.20251952 2.88499619 53.76062743 3.05369949 58.31860352 C3.11645984 60.0535233 3.17624933 61.78855331 3.23295212 63.52368164 C3.31317871 65.96276458 3.40417044 68.40123397 3.49755859 70.83984375 C3.51842026 71.54978989 3.53928192 72.25973602 3.56077576 72.99119568 C3.7651167 77.92393964 4.68732226 82.27024082 6 87 C1.71 87 -2.58 87 -7 87 C-6.34 85.02 -5.68 83.04 -5 81 C-4.69111175 78.27481312 -4.46089097 75.61599206 -4.31396484 72.88330078 C-4.24037498 71.69692772 -4.24037498 71.69692772 -4.16529846 70.48658752 C-4.00613802 67.88989602 -3.85846722 65.29268852 -3.7109375 62.6953125 C-3.60240451 60.88780514 -3.49315137 59.08034089 -3.38320923 57.2729187 C-3.09657052 52.5288482 -2.81968978 47.78425708 -2.54486084 43.03948975 C-2.26237914 38.19263963 -1.97064001 33.34634768 -1.6796875 28.5 C-1.11074762 19.00052248 -0.55211845 9.500469 0 0 Z " fill="#0052A7" transform="translate(252,425)"/>
<path d="M0 0 C1.98 0.99 1.98 0.99 4 2 C4.66 1.67 5.32 1.34 6 1 C6 4.63 6 8.26 6 12 C4.02 12 2.04 12 0 12 C0 8.04 0 4.08 0 0 Z " fill="#0BBC62" transform="translate(251,235)"/>
<path d="M0 0 C0.33 0 0.66 0 1 0 C1.33 11.88 1.66 23.76 2 36 C1.67 36 1.34 36 1 36 C0.67 34.35 0.34 32.7 0 31 C-0.33 31 -0.66 31 -1 31 C-1.16494885 20.6265501 -0.65043638 10.3489074 0 0 Z " fill="#00649C" transform="translate(252,425)"/>
<path d="M0 0 C-1.15093722 3.45281166 -2.3205993 4.38082163 -5.0625 6.6875 C-5.79597656 7.31011719 -6.52945313 7.93273437 -7.28515625 8.57421875 C-7.85105469 9.04472656 -8.41695313 9.51523438 -9 10 C-9 7 -9 7 -7.5390625 5.17578125 C-6.90742187 4.56089844 -6.27578125 3.94601563 -5.625 3.3125 C-4.68527344 2.37857422 -4.68527344 2.37857422 -3.7265625 1.42578125 C-2 0 -2 0 0 0 Z " fill="#326AB6" transform="translate(77,70)"/>
</svg>
